G75*
G70*
%OFA0B0*%
%FSLAX24Y24*%
%IPPOS*%
%LPD*%
%AMOC8*
5,1,8,0,0,1.08239X$1,22.5*
%
%ADD10C,0.0004*%
%ADD11C,0.0040*%
%ADD12C,0.0050*%
%ADD13C,0.0120*%
%ADD14R,0.0111X0.0056*%
%ADD15R,0.0166X0.0056*%
%ADD16R,0.0334X0.0056*%
%ADD17R,0.0444X0.0056*%
%ADD18R,0.0556X0.0056*%
%ADD19R,0.0667X0.0056*%
%ADD20R,0.0777X0.0056*%
%ADD21R,0.0944X0.0056*%
%ADD22R,0.1000X0.0056*%
%ADD23R,0.1112X0.0056*%
%ADD24R,0.1278X0.0056*%
%ADD25R,0.1389X0.0056*%
%ADD26R,0.1445X0.0056*%
%ADD27R,0.1500X0.0056*%
%ADD28R,0.1444X0.0056*%
%ADD29R,0.1500X0.0056*%
%ADD30R,0.1445X0.0056*%
%ADD31R,0.1444X0.0056*%
%ADD32R,0.1444X0.0056*%
%ADD33R,0.1444X0.0056*%
%ADD34R,0.6334X0.0056*%
%ADD35R,0.5388X0.0056*%
%ADD36R,0.6222X0.0056*%
%ADD37R,0.5388X0.0056*%
%ADD38R,0.6167X0.0056*%
%ADD39R,0.6056X0.0056*%
%ADD40R,0.6000X0.0056*%
%ADD41R,0.5945X0.0056*%
%ADD42R,0.5834X0.0056*%
%ADD43R,0.5778X0.0056*%
%ADD44R,0.5667X0.0056*%
%ADD45R,0.5611X0.0056*%
%ADD46R,0.5556X0.0056*%
%ADD47R,0.5445X0.0056*%
%ADD48R,0.5389X0.0056*%
%ADD49R,0.5278X0.0056*%
%ADD50R,0.5222X0.0056*%
%ADD51R,0.5167X0.0056*%
%ADD52R,0.0889X0.0056*%
%ADD53R,0.0833X0.0056*%
%ADD54R,0.0889X0.0056*%
%ADD55R,0.0833X0.0056*%
%ADD56R,0.1055X0.0056*%
%ADD57R,0.4667X0.0056*%
%ADD58R,0.4000X0.0056*%
%ADD59R,0.1778X0.0056*%
%ADD60R,0.4667X0.0056*%
%ADD61R,0.4333X0.0056*%
%ADD62R,0.2055X0.0056*%
%ADD63R,0.4500X0.0056*%
%ADD64R,0.2222X0.0056*%
%ADD65R,0.4555X0.0056*%
%ADD66R,0.2444X0.0056*%
%ADD67R,0.4666X0.0056*%
%ADD68R,0.2556X0.0056*%
%ADD69R,0.4722X0.0056*%
%ADD70R,0.2666X0.0056*%
%ADD71R,0.4722X0.0056*%
%ADD72R,0.2833X0.0056*%
%ADD73R,0.4777X0.0056*%
%ADD74R,0.2889X0.0056*%
%ADD75R,0.4889X0.0056*%
%ADD76R,0.3833X0.0056*%
%ADD77R,0.4889X0.0056*%
%ADD78R,0.3888X0.0056*%
%ADD79R,0.3888X0.0056*%
%ADD80R,0.4944X0.0056*%
%ADD81R,0.3944X0.0056*%
%ADD82R,0.4944X0.0056*%
%ADD83R,0.3944X0.0056*%
%ADD84R,0.8944X0.0056*%
%ADD85R,0.8944X0.0056*%
%ADD86R,0.6444X0.0056*%
%ADD87R,0.2277X0.0056*%
%ADD88R,0.6389X0.0056*%
%ADD89R,0.2222X0.0056*%
%ADD90R,0.6333X0.0056*%
%ADD91R,0.2166X0.0056*%
%ADD92R,0.8278X0.0056*%
%ADD93R,0.3055X0.0056*%
%ADD94R,0.2166X0.0056*%
%ADD95R,0.8278X0.0056*%
%ADD96R,0.2944X0.0056*%
%ADD97R,0.2111X0.0056*%
%ADD98R,0.2111X0.0056*%
%ADD99R,0.2334X0.0056*%
%ADD100R,0.5056X0.0056*%
%ADD101R,0.2834X0.0056*%
%ADD102R,0.2334X0.0056*%
%ADD103R,0.5056X0.0056*%
%ADD104R,0.2834X0.0056*%
%ADD105R,0.5000X0.0056*%
%ADD106R,0.3389X0.0056*%
%ADD107R,0.1556X0.0056*%
%ADD108R,0.3389X0.0056*%
%ADD109R,0.1556X0.0056*%
%ADD110R,0.3333X0.0056*%
%ADD111R,0.3277X0.0056*%
%ADD112R,0.2277X0.0056*%
%ADD113R,0.3277X0.0056*%
%ADD114R,0.2333X0.0056*%
%ADD115R,0.1388X0.0056*%
%ADD116R,0.1389X0.0056*%
%ADD117R,0.2388X0.0056*%
%ADD118R,0.1388X0.0056*%
%ADD119R,0.1389X0.0056*%
%ADD120R,0.2444X0.0056*%
%ADD121R,0.2555X0.0056*%
%ADD122R,0.2611X0.0056*%
%ADD123R,0.2722X0.0056*%
%ADD124R,0.2777X0.0056*%
%ADD125R,0.1555X0.0056*%
%ADD126R,0.2833X0.0056*%
%ADD127R,0.1389X0.0056*%
%ADD128R,0.1555X0.0056*%
%ADD129R,0.2944X0.0056*%
%ADD130R,0.1611X0.0056*%
%ADD131R,0.3445X0.0056*%
%ADD132R,0.3111X0.0056*%
%ADD133R,0.3445X0.0056*%
%ADD134R,0.3222X0.0056*%
%ADD135R,0.1333X0.0056*%
%ADD136R,0.3389X0.0056*%
%ADD137R,0.2389X0.0056*%
%ADD138R,0.1333X0.0056*%
%ADD139R,0.3389X0.0056*%
%ADD140R,0.2445X0.0056*%
%ADD141R,0.3334X0.0056*%
%ADD142R,0.2500X0.0056*%
%ADD143R,0.3278X0.0056*%
%ADD144R,0.2500X0.0056*%
%ADD145R,0.3223X0.0056*%
%ADD146R,0.3112X0.0056*%
%ADD147R,0.3000X0.0056*%
%ADD148R,0.2556X0.0056*%
%ADD149R,0.1334X0.0056*%
%ADD150R,0.1334X0.0056*%
%ADD151R,0.1334X0.0056*%
%ADD152R,0.3000X0.0056*%
%ADD153R,0.1334X0.0056*%
%ADD154R,0.3112X0.0056*%
%ADD155R,0.3167X0.0056*%
%ADD156R,0.2389X0.0056*%
%ADD157R,0.2333X0.0056*%
%ADD158R,0.2278X0.0056*%
%ADD159R,0.2223X0.0056*%
%ADD160R,0.2167X0.0056*%
%ADD161R,0.2111X0.0056*%
%ADD162R,0.2000X0.0056*%
%ADD163R,0.1278X0.0056*%
%ADD164R,0.2945X0.0056*%
%ADD165R,0.2945X0.0056*%
%ADD166R,0.2889X0.0056*%
%ADD167R,0.2667X0.0056*%
%ADD168R,0.2667X0.0056*%
%ADD169R,0.2611X0.0056*%
%ADD170R,0.2555X0.0056*%
%ADD171R,0.4889X0.0056*%
%ADD172R,0.4945X0.0056*%
%ADD173R,0.2388X0.0056*%
%ADD174R,0.2445X0.0056*%
%ADD175R,0.7500X0.0056*%
%ADD176R,0.3334X0.0056*%
%ADD177R,0.4055X0.0056*%
%ADD178R,0.4055X0.0056*%
%ADD179R,0.3278X0.0056*%
%ADD180R,0.2333X0.0056*%
%ADD181R,0.3223X0.0056*%
%ADD182R,0.3056X0.0056*%
%ADD183R,0.3167X0.0056*%
%ADD184R,0.2888X0.0056*%
%ADD185R,0.2833X0.0056*%
%ADD186R,0.2722X0.0056*%
%ADD187R,0.2556X0.0056*%
%ADD188R,0.2667X0.0056*%
%ADD189R,0.2222X0.0056*%
%ADD190R,0.2056X0.0056*%
%ADD191R,0.1778X0.0056*%
%ADD192R,0.4945X0.0056*%
%ADD193R,1.4222X0.0056*%
%ADD194R,1.4222X0.0056*%
D10*
X000611Y000363D02*
X009953Y000363D01*
X019296Y000363D01*
X019340Y000365D01*
X019383Y000371D01*
X019425Y000380D01*
X019467Y000393D01*
X019507Y000410D01*
X019546Y000430D01*
X019583Y000453D01*
X019617Y000480D01*
X019650Y000509D01*
X019679Y000542D01*
X019706Y000576D01*
X019729Y000613D01*
X019749Y000652D01*
X019766Y000692D01*
X019779Y000734D01*
X019788Y000776D01*
X019794Y000819D01*
X019796Y000863D01*
X019796Y010955D01*
X019796Y019548D01*
X019794Y019592D01*
X019788Y019635D01*
X019779Y019677D01*
X019766Y019719D01*
X019749Y019759D01*
X019729Y019798D01*
X019706Y019835D01*
X019679Y019869D01*
X019650Y019902D01*
X019617Y019931D01*
X019583Y019958D01*
X019546Y019981D01*
X019507Y020001D01*
X019467Y020018D01*
X019425Y020031D01*
X019383Y020040D01*
X019340Y020046D01*
X019296Y020048D01*
X009953Y020048D01*
X000611Y020048D01*
X000567Y020046D01*
X000524Y020040D01*
X000482Y020031D01*
X000440Y020018D01*
X000400Y020001D01*
X000361Y019981D01*
X000324Y019958D01*
X000290Y019931D01*
X000257Y019902D01*
X000228Y019869D01*
X000201Y019835D01*
X000178Y019798D01*
X000158Y019759D01*
X000141Y019719D01*
X000128Y019677D01*
X000119Y019635D01*
X000113Y019592D01*
X000111Y019548D01*
X000111Y010205D01*
X000111Y000863D01*
X000113Y000819D01*
X000119Y000776D01*
X000128Y000734D01*
X000141Y000692D01*
X000158Y000652D01*
X000178Y000613D01*
X000201Y000576D01*
X000228Y000542D01*
X000257Y000509D01*
X000290Y000480D01*
X000324Y000453D01*
X000361Y000430D01*
X000400Y000410D01*
X000440Y000393D01*
X000482Y000380D01*
X000524Y000371D01*
X000567Y000365D01*
X000611Y000363D01*
D11*
X006631Y001320D02*
X006631Y001781D01*
X006861Y001781D01*
X006938Y001704D01*
X006938Y001551D01*
X006861Y001474D01*
X006631Y001474D01*
X006784Y001474D02*
X006938Y001320D01*
X007091Y001320D02*
X007321Y001320D01*
X007398Y001397D01*
X007321Y001474D01*
X007168Y001474D01*
X007091Y001551D01*
X007168Y001627D01*
X007398Y001627D01*
X007631Y001425D02*
X007938Y001425D01*
X008091Y001272D02*
X008168Y001195D01*
X008321Y001195D01*
X008398Y001272D01*
X008398Y001349D01*
X008321Y001425D01*
X008245Y001425D01*
X008321Y001425D02*
X008398Y001502D01*
X008398Y001579D01*
X008321Y001656D01*
X008168Y001656D01*
X008091Y001579D01*
X007784Y001579D02*
X007784Y001272D01*
X008631Y001425D02*
X008938Y001425D01*
X009091Y001425D02*
X009245Y001502D01*
X009321Y001502D01*
X009398Y001425D01*
X009398Y001272D01*
X009321Y001195D01*
X009168Y001195D01*
X009091Y001272D01*
X009091Y001425D02*
X009091Y001656D01*
X009398Y001656D01*
X008784Y001579D02*
X008784Y001272D01*
X011693Y001411D02*
X011847Y001258D01*
X012000Y001411D01*
X012000Y001718D01*
X012154Y001565D02*
X012230Y001565D01*
X012230Y001258D01*
X012154Y001258D02*
X012307Y001258D01*
X012230Y001718D02*
X012230Y001795D01*
X011693Y001718D02*
X011693Y001411D01*
X012756Y001525D02*
X012756Y001218D01*
X012986Y001218D01*
X012909Y001372D01*
X012909Y001448D01*
X012986Y001525D01*
X013139Y001525D01*
X013216Y001448D01*
X013216Y001295D01*
X013139Y001218D01*
X012986Y001065D02*
X012986Y000758D01*
X013139Y000911D02*
X012832Y000911D01*
X013818Y001397D02*
X014125Y001704D01*
X014125Y001397D01*
X014049Y001320D01*
X013895Y001320D01*
X013818Y001397D01*
X013818Y001704D01*
X013895Y001781D01*
X014049Y001781D01*
X014125Y001704D01*
X014881Y001627D02*
X015034Y001781D01*
X015034Y001320D01*
X014881Y001320D02*
X015188Y001320D01*
X015818Y001320D02*
X016125Y001627D01*
X016125Y001704D01*
X016049Y001781D01*
X015895Y001781D01*
X015818Y001704D01*
X015818Y001320D02*
X016125Y001320D01*
X016881Y001397D02*
X016958Y001320D01*
X017111Y001320D01*
X017188Y001397D01*
X017188Y001474D01*
X017111Y001550D01*
X017034Y001550D01*
X017111Y001550D02*
X017188Y001627D01*
X017188Y001704D01*
X017111Y001781D01*
X016958Y001781D01*
X016881Y001704D01*
X017818Y001550D02*
X018125Y001550D01*
X018049Y001320D02*
X018049Y001781D01*
X017818Y001550D01*
X018881Y001550D02*
X019034Y001627D01*
X019111Y001627D01*
X019188Y001550D01*
X019188Y001397D01*
X019111Y001320D01*
X018958Y001320D01*
X018881Y001397D01*
X018881Y001550D02*
X018881Y001781D01*
X019188Y001781D01*
X019284Y001093D02*
X019438Y000940D01*
X019438Y000633D01*
X019438Y000863D02*
X019131Y000863D01*
X019131Y000940D02*
X019284Y001093D01*
X019131Y000940D02*
X019131Y000633D01*
X019049Y018695D02*
X018895Y018695D01*
X018818Y018772D01*
X019125Y019079D01*
X019125Y018772D01*
X019049Y018695D01*
X018818Y018772D02*
X018818Y019079D01*
X018895Y019156D01*
X019049Y019156D01*
X019125Y019079D01*
X019131Y019383D02*
X019361Y019383D01*
X019438Y019460D01*
X019438Y019766D01*
X019361Y019843D01*
X019131Y019843D01*
X019131Y019383D01*
X018188Y018695D02*
X017881Y018695D01*
X018034Y018695D02*
X018034Y019156D01*
X017881Y019002D01*
X017125Y019002D02*
X017125Y019079D01*
X017049Y019156D01*
X016895Y019156D01*
X016818Y019079D01*
X017125Y019002D02*
X016818Y018695D01*
X017125Y018695D01*
X016125Y018772D02*
X016049Y018695D01*
X015895Y018695D01*
X015818Y018772D01*
X015972Y018926D02*
X016049Y018926D01*
X016125Y018849D01*
X016125Y018772D01*
X016049Y018926D02*
X016125Y019002D01*
X016125Y019079D01*
X016049Y019156D01*
X015895Y019156D01*
X015818Y019079D01*
X015125Y018925D02*
X014818Y018925D01*
X015049Y019156D01*
X015049Y018695D01*
X014125Y018772D02*
X014049Y018695D01*
X013895Y018695D01*
X013818Y018772D01*
X013818Y018925D02*
X013972Y019002D01*
X014049Y019002D01*
X014125Y018925D01*
X014125Y018772D01*
X013818Y018925D02*
X013818Y019156D01*
X014125Y019156D01*
X013125Y019156D02*
X012972Y019079D01*
X012818Y018926D01*
X013049Y018926D01*
X013125Y018849D01*
X013125Y018772D01*
X013049Y018695D01*
X012895Y018695D01*
X012818Y018772D01*
X012818Y018926D01*
X012125Y019079D02*
X011818Y018772D01*
X011818Y018695D01*
X011818Y019156D02*
X012125Y019156D01*
X012125Y019079D01*
X011153Y019420D02*
X011077Y019343D01*
X011153Y019420D02*
X011153Y019573D01*
X011077Y019650D01*
X010923Y019650D01*
X010846Y019573D01*
X010846Y019497D01*
X010923Y019343D01*
X010693Y019343D01*
X010693Y019650D01*
X010923Y019190D02*
X010923Y018883D01*
X010770Y019036D02*
X011077Y019036D01*
X010125Y019002D02*
X010049Y018925D01*
X009895Y018925D01*
X009818Y019002D01*
X009818Y019079D01*
X009895Y019156D01*
X010049Y019156D01*
X010125Y019079D01*
X010125Y019002D01*
X010049Y018925D02*
X010125Y018849D01*
X010125Y018772D01*
X010049Y018695D01*
X009895Y018695D01*
X009818Y018772D01*
X009818Y018849D01*
X009895Y018925D01*
X009125Y018926D02*
X008895Y018926D01*
X008818Y019002D01*
X008818Y019079D01*
X008895Y019156D01*
X009049Y019156D01*
X009125Y019079D01*
X009125Y018772D01*
X009049Y018695D01*
X008895Y018695D01*
X008818Y018772D01*
X008398Y018772D02*
X008398Y019079D01*
X008091Y018772D01*
X008168Y018695D01*
X008321Y018695D01*
X008398Y018772D01*
X008091Y018772D02*
X008091Y019079D01*
X008168Y019156D01*
X008321Y019156D01*
X008398Y019079D01*
X007938Y018695D02*
X007631Y018695D01*
X007784Y018695D02*
X007784Y019156D01*
X007631Y019002D01*
X007398Y018695D02*
X007091Y018695D01*
X006938Y018695D02*
X006631Y018695D01*
X006784Y018695D02*
X006784Y019156D01*
X006631Y019002D01*
X006398Y019002D02*
X006398Y019079D01*
X006321Y019156D01*
X006168Y019156D01*
X006091Y019079D01*
X005784Y019156D02*
X005784Y018695D01*
X005631Y018695D02*
X005938Y018695D01*
X006091Y018695D02*
X006398Y019002D01*
X006398Y018695D02*
X006091Y018695D01*
X005631Y019002D02*
X005784Y019156D01*
X005398Y019079D02*
X005398Y019002D01*
X005321Y018925D01*
X005398Y018849D01*
X005398Y018772D01*
X005321Y018695D01*
X005168Y018695D01*
X005091Y018772D01*
X004938Y018695D02*
X004631Y018695D01*
X004784Y018695D02*
X004784Y019156D01*
X004631Y019002D01*
X005091Y019079D02*
X005168Y019156D01*
X005321Y019156D01*
X005398Y019079D01*
X005321Y018925D02*
X005245Y018925D01*
X007091Y019002D02*
X007245Y019156D01*
X007245Y018695D01*
X003384Y019002D02*
X003307Y019002D01*
X003154Y018849D01*
X003154Y019002D02*
X003154Y018695D01*
X003000Y018695D02*
X003000Y019002D01*
X002847Y019156D01*
X002693Y019002D01*
X002693Y018695D01*
X002693Y018925D02*
X003000Y018925D01*
D12*
X003761Y019006D02*
X004168Y019006D01*
X009823Y001443D02*
X010230Y001443D01*
X010823Y001443D02*
X011230Y001443D01*
D13*
X010486Y002238D02*
X010488Y002282D01*
X010494Y002326D01*
X010504Y002369D01*
X010517Y002411D01*
X010534Y002452D01*
X010555Y002491D01*
X010579Y002528D01*
X010606Y002563D01*
X010636Y002595D01*
X010669Y002625D01*
X010705Y002651D01*
X010742Y002675D01*
X010782Y002694D01*
X010823Y002711D01*
X010866Y002723D01*
X010909Y002732D01*
X010953Y002737D01*
X010997Y002738D01*
X011041Y002735D01*
X011085Y002728D01*
X011128Y002717D01*
X011170Y002703D01*
X011210Y002685D01*
X011249Y002663D01*
X011285Y002639D01*
X011319Y002611D01*
X011351Y002580D01*
X011380Y002546D01*
X011406Y002510D01*
X011428Y002472D01*
X011447Y002432D01*
X011462Y002390D01*
X011474Y002348D01*
X011482Y002304D01*
X011486Y002260D01*
X011486Y002216D01*
X011482Y002172D01*
X011474Y002128D01*
X011462Y002086D01*
X011447Y002044D01*
X011428Y002004D01*
X011406Y001966D01*
X011380Y001930D01*
X011351Y001896D01*
X011319Y001865D01*
X011285Y001837D01*
X011249Y001813D01*
X011210Y001791D01*
X011170Y001773D01*
X011128Y001759D01*
X011085Y001748D01*
X011041Y001741D01*
X010997Y001738D01*
X010953Y001739D01*
X010909Y001744D01*
X010866Y001753D01*
X010823Y001765D01*
X010782Y001782D01*
X010742Y001801D01*
X010705Y001825D01*
X010669Y001851D01*
X010636Y001881D01*
X010606Y001913D01*
X010579Y001948D01*
X010555Y001985D01*
X010534Y002024D01*
X010517Y002065D01*
X010504Y002107D01*
X010494Y002150D01*
X010488Y002194D01*
X010486Y002238D01*
X009486Y002238D02*
X009488Y002282D01*
X009494Y002326D01*
X009504Y002369D01*
X009517Y002411D01*
X009534Y002452D01*
X009555Y002491D01*
X009579Y002528D01*
X009606Y002563D01*
X009636Y002595D01*
X009669Y002625D01*
X009705Y002651D01*
X009742Y002675D01*
X009782Y002694D01*
X009823Y002711D01*
X009866Y002723D01*
X009909Y002732D01*
X009953Y002737D01*
X009997Y002738D01*
X010041Y002735D01*
X010085Y002728D01*
X010128Y002717D01*
X010170Y002703D01*
X010210Y002685D01*
X010249Y002663D01*
X010285Y002639D01*
X010319Y002611D01*
X010351Y002580D01*
X010380Y002546D01*
X010406Y002510D01*
X010428Y002472D01*
X010447Y002432D01*
X010462Y002390D01*
X010474Y002348D01*
X010482Y002304D01*
X010486Y002260D01*
X010486Y002216D01*
X010482Y002172D01*
X010474Y002128D01*
X010462Y002086D01*
X010447Y002044D01*
X010428Y002004D01*
X010406Y001966D01*
X010380Y001930D01*
X010351Y001896D01*
X010319Y001865D01*
X010285Y001837D01*
X010249Y001813D01*
X010210Y001791D01*
X010170Y001773D01*
X010128Y001759D01*
X010085Y001748D01*
X010041Y001741D01*
X009997Y001738D01*
X009953Y001739D01*
X009909Y001744D01*
X009866Y001753D01*
X009823Y001765D01*
X009782Y001782D01*
X009742Y001801D01*
X009705Y001825D01*
X009669Y001851D01*
X009636Y001881D01*
X009606Y001913D01*
X009579Y001948D01*
X009555Y001985D01*
X009534Y002024D01*
X009517Y002065D01*
X009504Y002107D01*
X009494Y002150D01*
X009488Y002194D01*
X009486Y002238D01*
X008486Y002238D02*
X008488Y002282D01*
X008494Y002326D01*
X008504Y002369D01*
X008517Y002411D01*
X008534Y002452D01*
X008555Y002491D01*
X008579Y002528D01*
X008606Y002563D01*
X008636Y002595D01*
X008669Y002625D01*
X008705Y002651D01*
X008742Y002675D01*
X008782Y002694D01*
X008823Y002711D01*
X008866Y002723D01*
X008909Y002732D01*
X008953Y002737D01*
X008997Y002738D01*
X009041Y002735D01*
X009085Y002728D01*
X009128Y002717D01*
X009170Y002703D01*
X009210Y002685D01*
X009249Y002663D01*
X009285Y002639D01*
X009319Y002611D01*
X009351Y002580D01*
X009380Y002546D01*
X009406Y002510D01*
X009428Y002472D01*
X009447Y002432D01*
X009462Y002390D01*
X009474Y002348D01*
X009482Y002304D01*
X009486Y002260D01*
X009486Y002216D01*
X009482Y002172D01*
X009474Y002128D01*
X009462Y002086D01*
X009447Y002044D01*
X009428Y002004D01*
X009406Y001966D01*
X009380Y001930D01*
X009351Y001896D01*
X009319Y001865D01*
X009285Y001837D01*
X009249Y001813D01*
X009210Y001791D01*
X009170Y001773D01*
X009128Y001759D01*
X009085Y001748D01*
X009041Y001741D01*
X008997Y001738D01*
X008953Y001739D01*
X008909Y001744D01*
X008866Y001753D01*
X008823Y001765D01*
X008782Y001782D01*
X008742Y001801D01*
X008705Y001825D01*
X008669Y001851D01*
X008636Y001881D01*
X008606Y001913D01*
X008579Y001948D01*
X008555Y001985D01*
X008534Y002024D01*
X008517Y002065D01*
X008504Y002107D01*
X008494Y002150D01*
X008488Y002194D01*
X008486Y002238D01*
X007486Y002238D02*
X007488Y002282D01*
X007494Y002326D01*
X007504Y002369D01*
X007517Y002411D01*
X007534Y002452D01*
X007555Y002491D01*
X007579Y002528D01*
X007606Y002563D01*
X007636Y002595D01*
X007669Y002625D01*
X007705Y002651D01*
X007742Y002675D01*
X007782Y002694D01*
X007823Y002711D01*
X007866Y002723D01*
X007909Y002732D01*
X007953Y002737D01*
X007997Y002738D01*
X008041Y002735D01*
X008085Y002728D01*
X008128Y002717D01*
X008170Y002703D01*
X008210Y002685D01*
X008249Y002663D01*
X008285Y002639D01*
X008319Y002611D01*
X008351Y002580D01*
X008380Y002546D01*
X008406Y002510D01*
X008428Y002472D01*
X008447Y002432D01*
X008462Y002390D01*
X008474Y002348D01*
X008482Y002304D01*
X008486Y002260D01*
X008486Y002216D01*
X008482Y002172D01*
X008474Y002128D01*
X008462Y002086D01*
X008447Y002044D01*
X008428Y002004D01*
X008406Y001966D01*
X008380Y001930D01*
X008351Y001896D01*
X008319Y001865D01*
X008285Y001837D01*
X008249Y001813D01*
X008210Y001791D01*
X008170Y001773D01*
X008128Y001759D01*
X008085Y001748D01*
X008041Y001741D01*
X007997Y001738D01*
X007953Y001739D01*
X007909Y001744D01*
X007866Y001753D01*
X007823Y001765D01*
X007782Y001782D01*
X007742Y001801D01*
X007705Y001825D01*
X007669Y001851D01*
X007636Y001881D01*
X007606Y001913D01*
X007579Y001948D01*
X007555Y001985D01*
X007534Y002024D01*
X007517Y002065D01*
X007504Y002107D01*
X007494Y002150D01*
X007488Y002194D01*
X007486Y002238D01*
X012486Y002238D02*
X012488Y002282D01*
X012494Y002326D01*
X012504Y002369D01*
X012517Y002411D01*
X012534Y002452D01*
X012555Y002491D01*
X012579Y002528D01*
X012606Y002563D01*
X012636Y002595D01*
X012669Y002625D01*
X012705Y002651D01*
X012742Y002675D01*
X012782Y002694D01*
X012823Y002711D01*
X012866Y002723D01*
X012909Y002732D01*
X012953Y002737D01*
X012997Y002738D01*
X013041Y002735D01*
X013085Y002728D01*
X013128Y002717D01*
X013170Y002703D01*
X013210Y002685D01*
X013249Y002663D01*
X013285Y002639D01*
X013319Y002611D01*
X013351Y002580D01*
X013380Y002546D01*
X013406Y002510D01*
X013428Y002472D01*
X013447Y002432D01*
X013462Y002390D01*
X013474Y002348D01*
X013482Y002304D01*
X013486Y002260D01*
X013486Y002216D01*
X013482Y002172D01*
X013474Y002128D01*
X013462Y002086D01*
X013447Y002044D01*
X013428Y002004D01*
X013406Y001966D01*
X013380Y001930D01*
X013351Y001896D01*
X013319Y001865D01*
X013285Y001837D01*
X013249Y001813D01*
X013210Y001791D01*
X013170Y001773D01*
X013128Y001759D01*
X013085Y001748D01*
X013041Y001741D01*
X012997Y001738D01*
X012953Y001739D01*
X012909Y001744D01*
X012866Y001753D01*
X012823Y001765D01*
X012782Y001782D01*
X012742Y001801D01*
X012705Y001825D01*
X012669Y001851D01*
X012636Y001881D01*
X012606Y001913D01*
X012579Y001948D01*
X012555Y001985D01*
X012534Y002024D01*
X012517Y002065D01*
X012504Y002107D01*
X012494Y002150D01*
X012488Y002194D01*
X012486Y002238D01*
X010486Y018238D02*
X010488Y018282D01*
X010494Y018326D01*
X010504Y018369D01*
X010517Y018411D01*
X010534Y018452D01*
X010555Y018491D01*
X010579Y018528D01*
X010606Y018563D01*
X010636Y018595D01*
X010669Y018625D01*
X010705Y018651D01*
X010742Y018675D01*
X010782Y018694D01*
X010823Y018711D01*
X010866Y018723D01*
X010909Y018732D01*
X010953Y018737D01*
X010997Y018738D01*
X011041Y018735D01*
X011085Y018728D01*
X011128Y018717D01*
X011170Y018703D01*
X011210Y018685D01*
X011249Y018663D01*
X011285Y018639D01*
X011319Y018611D01*
X011351Y018580D01*
X011380Y018546D01*
X011406Y018510D01*
X011428Y018472D01*
X011447Y018432D01*
X011462Y018390D01*
X011474Y018348D01*
X011482Y018304D01*
X011486Y018260D01*
X011486Y018216D01*
X011482Y018172D01*
X011474Y018128D01*
X011462Y018086D01*
X011447Y018044D01*
X011428Y018004D01*
X011406Y017966D01*
X011380Y017930D01*
X011351Y017896D01*
X011319Y017865D01*
X011285Y017837D01*
X011249Y017813D01*
X011210Y017791D01*
X011170Y017773D01*
X011128Y017759D01*
X011085Y017748D01*
X011041Y017741D01*
X010997Y017738D01*
X010953Y017739D01*
X010909Y017744D01*
X010866Y017753D01*
X010823Y017765D01*
X010782Y017782D01*
X010742Y017801D01*
X010705Y017825D01*
X010669Y017851D01*
X010636Y017881D01*
X010606Y017913D01*
X010579Y017948D01*
X010555Y017985D01*
X010534Y018024D01*
X010517Y018065D01*
X010504Y018107D01*
X010494Y018150D01*
X010488Y018194D01*
X010486Y018238D01*
X003486Y018238D02*
X003488Y018282D01*
X003494Y018326D01*
X003504Y018369D01*
X003517Y018411D01*
X003534Y018452D01*
X003555Y018491D01*
X003579Y018528D01*
X003606Y018563D01*
X003636Y018595D01*
X003669Y018625D01*
X003705Y018651D01*
X003742Y018675D01*
X003782Y018694D01*
X003823Y018711D01*
X003866Y018723D01*
X003909Y018732D01*
X003953Y018737D01*
X003997Y018738D01*
X004041Y018735D01*
X004085Y018728D01*
X004128Y018717D01*
X004170Y018703D01*
X004210Y018685D01*
X004249Y018663D01*
X004285Y018639D01*
X004319Y018611D01*
X004351Y018580D01*
X004380Y018546D01*
X004406Y018510D01*
X004428Y018472D01*
X004447Y018432D01*
X004462Y018390D01*
X004474Y018348D01*
X004482Y018304D01*
X004486Y018260D01*
X004486Y018216D01*
X004482Y018172D01*
X004474Y018128D01*
X004462Y018086D01*
X004447Y018044D01*
X004428Y018004D01*
X004406Y017966D01*
X004380Y017930D01*
X004351Y017896D01*
X004319Y017865D01*
X004285Y017837D01*
X004249Y017813D01*
X004210Y017791D01*
X004170Y017773D01*
X004128Y017759D01*
X004085Y017748D01*
X004041Y017741D01*
X003997Y017738D01*
X003953Y017739D01*
X003909Y017744D01*
X003866Y017753D01*
X003823Y017765D01*
X003782Y017782D01*
X003742Y017801D01*
X003705Y017825D01*
X003669Y017851D01*
X003636Y017881D01*
X003606Y017913D01*
X003579Y017948D01*
X003555Y017985D01*
X003534Y018024D01*
X003517Y018065D01*
X003504Y018107D01*
X003494Y018150D01*
X003488Y018194D01*
X003486Y018238D01*
D14*
X011353Y003001D03*
D15*
X011326Y003057D03*
D16*
X011298Y003112D03*
D17*
X011298Y003168D03*
D18*
X011298Y003223D03*
D19*
X011242Y003279D03*
D20*
X011242Y003334D03*
D21*
X011215Y003390D03*
X014659Y014279D03*
D22*
X011187Y003446D03*
D23*
X011187Y003501D03*
D24*
X011159Y003557D03*
X008604Y012168D03*
X008604Y012334D03*
D25*
X008659Y011723D03*
X008714Y011390D03*
X008714Y011279D03*
X008714Y011223D03*
X006992Y011001D03*
X006992Y010890D03*
X006992Y010779D03*
X006992Y010723D03*
X007159Y012112D03*
X007159Y012223D03*
X007159Y012279D03*
X011159Y003612D03*
D26*
X011131Y003668D03*
X009242Y005057D03*
D27*
X009159Y005112D03*
X009326Y005001D03*
X008993Y005223D03*
X008937Y005279D03*
X008770Y005390D03*
X009604Y004779D03*
X009826Y004612D03*
X009993Y004501D03*
X010159Y004390D03*
X010381Y004223D03*
X010659Y004001D03*
X010826Y003890D03*
X010993Y003779D03*
X011048Y003723D03*
X014770Y008279D03*
X012381Y010723D03*
D28*
X010909Y003834D03*
D29*
X010770Y003946D03*
X010604Y004057D03*
X010437Y004168D03*
X010215Y004334D03*
X009937Y004557D03*
X009770Y004668D03*
X009548Y004834D03*
X009381Y004946D03*
X009104Y005168D03*
X008881Y005334D03*
X008715Y005446D03*
X008548Y005557D03*
X012270Y011946D03*
D30*
X008631Y005501D03*
X010520Y004112D03*
D31*
X010298Y004279D03*
X012298Y012001D03*
D32*
X010076Y004446D03*
D33*
X009687Y004723D03*
X009465Y004890D03*
X014687Y014223D03*
D34*
X006076Y005612D03*
D35*
X014437Y005612D03*
X014437Y005723D03*
X014437Y005779D03*
X014437Y005890D03*
X014437Y006001D03*
X014437Y006112D03*
X014437Y006223D03*
X014437Y006279D03*
X014437Y006390D03*
X014437Y016390D03*
X014437Y016501D03*
X014437Y017001D03*
X014437Y017112D03*
D36*
X006020Y005668D03*
D37*
X014437Y005668D03*
X014437Y005834D03*
X014437Y005946D03*
X014437Y006057D03*
X014437Y006168D03*
X014437Y006334D03*
X014437Y006446D03*
X014437Y016334D03*
X014437Y016446D03*
X014437Y016557D03*
X014437Y017057D03*
X014437Y017168D03*
D38*
X005992Y005723D03*
D39*
X005937Y005779D03*
D40*
X005909Y005834D03*
D41*
X005881Y005890D03*
D42*
X005826Y005946D03*
D43*
X005798Y006001D03*
D44*
X005742Y006057D03*
D45*
X005714Y006112D03*
D46*
X005687Y006168D03*
D47*
X005631Y006223D03*
D48*
X005603Y006279D03*
D49*
X005548Y006334D03*
D50*
X005520Y006390D03*
D51*
X005492Y006446D03*
D52*
X003353Y006501D03*
X003353Y006612D03*
X003353Y006723D03*
X003353Y006779D03*
X003353Y006890D03*
X003353Y007001D03*
X003353Y007112D03*
X003353Y007223D03*
X003353Y007279D03*
X003353Y007390D03*
X003353Y007501D03*
X003353Y007612D03*
X003353Y007723D03*
X003353Y007779D03*
X003353Y007890D03*
X003353Y008001D03*
X003353Y008112D03*
X003353Y008223D03*
X003353Y008279D03*
X003353Y014223D03*
X003353Y014279D03*
X003353Y014390D03*
X003353Y014501D03*
X003353Y014612D03*
X003353Y014723D03*
X003353Y014779D03*
X003353Y014890D03*
X003353Y015001D03*
X003353Y015112D03*
X003353Y015223D03*
X003353Y015279D03*
X003353Y015390D03*
X003353Y015501D03*
X003353Y015612D03*
X003353Y015723D03*
X003353Y015779D03*
X003353Y015890D03*
X003353Y016001D03*
X003353Y016112D03*
X003353Y016223D03*
X003353Y016279D03*
D53*
X016714Y016279D03*
X016714Y016223D03*
X016714Y016112D03*
X016714Y016001D03*
X016714Y015890D03*
X016714Y015779D03*
X016714Y015723D03*
X016714Y015612D03*
X016714Y015501D03*
X016714Y015390D03*
X016714Y015279D03*
X016714Y015223D03*
X016714Y015112D03*
X016714Y015001D03*
X016714Y014890D03*
X016714Y014779D03*
X016714Y014723D03*
X016714Y014612D03*
X016714Y014501D03*
X016714Y014390D03*
X016714Y014279D03*
X016714Y014223D03*
X016714Y014112D03*
X016714Y014001D03*
X016714Y013890D03*
X016714Y013779D03*
X016714Y013723D03*
X016714Y013612D03*
X016714Y012279D03*
X016714Y012223D03*
X016714Y012112D03*
X016714Y012001D03*
X016714Y011890D03*
X016714Y011779D03*
X016714Y011723D03*
X016714Y011612D03*
X016714Y011501D03*
X016714Y011390D03*
X016714Y011279D03*
X016714Y011223D03*
X016714Y011112D03*
X016714Y008723D03*
X016714Y008612D03*
X016714Y008501D03*
X016714Y008390D03*
X016714Y008279D03*
X016714Y008223D03*
X016714Y008112D03*
X016714Y008001D03*
X016714Y007890D03*
X016714Y007779D03*
X016714Y007723D03*
X016714Y007612D03*
X016714Y007501D03*
X016714Y007390D03*
X016714Y007279D03*
X016714Y007223D03*
X016714Y007112D03*
X016714Y007001D03*
X016714Y006890D03*
X016714Y006779D03*
X016714Y006723D03*
X016714Y006612D03*
X016714Y006501D03*
D54*
X003353Y006557D03*
X003353Y006668D03*
X003353Y006834D03*
X003353Y006946D03*
X003353Y007057D03*
X003353Y007168D03*
X003353Y007334D03*
X003353Y007446D03*
X003353Y007557D03*
X003353Y007668D03*
X003353Y007834D03*
X003353Y007946D03*
X003353Y008057D03*
X003353Y008168D03*
X003353Y014334D03*
X003353Y014446D03*
X003353Y014557D03*
X003353Y014668D03*
X003353Y014834D03*
X003353Y014946D03*
X003353Y015057D03*
X003353Y015168D03*
X003353Y015334D03*
X003353Y015446D03*
X003353Y015557D03*
X003353Y015668D03*
X003353Y015834D03*
X003353Y015946D03*
X003353Y016057D03*
X003353Y016168D03*
D55*
X016714Y016168D03*
X016714Y016057D03*
X016714Y015946D03*
X016714Y015834D03*
X016714Y015668D03*
X016714Y015557D03*
X016714Y015446D03*
X016714Y015334D03*
X016714Y015168D03*
X016714Y015057D03*
X016714Y014946D03*
X016714Y014834D03*
X016714Y014668D03*
X016714Y014557D03*
X016714Y014446D03*
X016714Y014334D03*
X016714Y014168D03*
X016714Y014057D03*
X016714Y013946D03*
X016714Y013834D03*
X016714Y013668D03*
X016714Y012334D03*
X016714Y012168D03*
X016714Y012057D03*
X016714Y011946D03*
X016714Y011834D03*
X016714Y011668D03*
X016714Y011557D03*
X016714Y011446D03*
X016714Y011334D03*
X016714Y011168D03*
X016714Y011057D03*
X016714Y008668D03*
X016714Y008557D03*
X016714Y008446D03*
X016714Y008334D03*
X016714Y008168D03*
X016714Y008057D03*
X016714Y007946D03*
X016714Y007834D03*
X016714Y007668D03*
X016714Y007557D03*
X016714Y007446D03*
X016714Y007334D03*
X016714Y007168D03*
X016714Y007057D03*
X016714Y006946D03*
X016714Y006834D03*
X016714Y006668D03*
X016714Y006557D03*
D56*
X014770Y008223D03*
D57*
X005242Y008334D03*
X005242Y008446D03*
X005242Y008557D03*
X005242Y008668D03*
D58*
X010243Y008334D03*
X015131Y013557D03*
D59*
X014798Y008334D03*
D60*
X005242Y008390D03*
X005242Y008501D03*
X005242Y008612D03*
X005242Y008723D03*
D61*
X010409Y008390D03*
D62*
X014770Y008390D03*
D63*
X010493Y008446D03*
D64*
X014798Y008446D03*
X016020Y012446D03*
X016020Y012557D03*
X016020Y012668D03*
X016020Y012834D03*
X016020Y012946D03*
X016020Y013057D03*
X016020Y013168D03*
X007854Y014057D03*
X007854Y014168D03*
D65*
X010520Y008501D03*
D66*
X014798Y008501D03*
D67*
X010576Y008557D03*
D68*
X014798Y008557D03*
D69*
X010604Y008612D03*
X005270Y008779D03*
X005270Y008890D03*
X005270Y009001D03*
X005270Y009112D03*
X005270Y009223D03*
X005270Y009279D03*
D70*
X014798Y008612D03*
D71*
X010604Y008668D03*
X005270Y008834D03*
X005270Y008946D03*
X005270Y009057D03*
X005270Y009168D03*
X005270Y009334D03*
D72*
X014770Y008668D03*
D73*
X010631Y008723D03*
D74*
X013020Y009501D03*
X014798Y008723D03*
X013075Y012501D03*
X013020Y013001D03*
D75*
X010631Y008890D03*
X010631Y008779D03*
D76*
X015214Y008779D03*
D77*
X010631Y008834D03*
D78*
X015187Y008834D03*
D79*
X015187Y008890D03*
D80*
X010659Y008946D03*
D81*
X015159Y008946D03*
D82*
X010659Y009001D03*
D83*
X015159Y009001D03*
D84*
X012659Y009057D03*
X012659Y009168D03*
D85*
X012659Y009112D03*
D86*
X011409Y009223D03*
D87*
X015992Y009223D03*
X015992Y013223D03*
D88*
X011381Y009279D03*
D89*
X016020Y009279D03*
X016020Y010279D03*
X016020Y012390D03*
X016020Y012501D03*
X016020Y012612D03*
X016020Y012723D03*
X016020Y012779D03*
X016020Y012890D03*
X016020Y013001D03*
X016020Y013112D03*
X007854Y014112D03*
D90*
X011353Y009334D03*
D91*
X016048Y009334D03*
X016048Y010057D03*
X016048Y010168D03*
D92*
X007048Y009501D03*
X007048Y009390D03*
D93*
X012992Y009390D03*
X015603Y010890D03*
D94*
X016048Y010223D03*
X016048Y010112D03*
X016048Y009390D03*
D95*
X007048Y009446D03*
D96*
X013048Y009446D03*
D97*
X016075Y009446D03*
X016075Y009557D03*
X016075Y009668D03*
X016075Y009834D03*
X016075Y009946D03*
D98*
X016075Y010001D03*
X016075Y009890D03*
X016075Y009779D03*
X016075Y009723D03*
X016075Y009612D03*
X016075Y009501D03*
D99*
X004076Y009557D03*
X004076Y009668D03*
X004076Y009834D03*
X004076Y009946D03*
X004076Y010057D03*
X004076Y010168D03*
X004076Y010334D03*
X004076Y010446D03*
X004076Y010557D03*
X004076Y010668D03*
X004076Y010834D03*
X004076Y010946D03*
X004076Y011057D03*
X004076Y011168D03*
X004076Y011334D03*
X004076Y011446D03*
X004076Y011557D03*
X004076Y011668D03*
X004076Y011834D03*
X004076Y011946D03*
X004076Y012057D03*
X004076Y012168D03*
X004076Y012334D03*
X004076Y012446D03*
X004076Y012557D03*
X004076Y012668D03*
X004076Y012834D03*
X004076Y012946D03*
X004076Y013057D03*
X004076Y013168D03*
X004076Y013334D03*
X004076Y013446D03*
X004076Y013557D03*
X004076Y013668D03*
X004076Y013834D03*
X004076Y013946D03*
X004076Y014057D03*
X004076Y014168D03*
D100*
X008659Y009834D03*
X008659Y009668D03*
X008659Y009557D03*
D101*
X011048Y011446D03*
X013048Y012557D03*
X013048Y012668D03*
X013048Y012834D03*
X013048Y010334D03*
X013048Y010168D03*
X013048Y010057D03*
X013048Y009946D03*
X013048Y009834D03*
X013048Y009668D03*
X013048Y009557D03*
D102*
X004076Y009612D03*
X004076Y009723D03*
X004076Y009779D03*
X004076Y009890D03*
X004076Y010001D03*
X004076Y010112D03*
X004076Y010223D03*
X004076Y010279D03*
X004076Y010390D03*
X004076Y010501D03*
X004076Y010612D03*
X004076Y010723D03*
X004076Y010779D03*
X004076Y010890D03*
X004076Y011001D03*
X004076Y011112D03*
X004076Y011223D03*
X004076Y011279D03*
X004076Y011390D03*
X004076Y011501D03*
X004076Y011612D03*
X004076Y011723D03*
X004076Y011779D03*
X004076Y011890D03*
X004076Y012001D03*
X004076Y012112D03*
X004076Y012223D03*
X004076Y012279D03*
X004076Y012390D03*
X004076Y012501D03*
X004076Y012612D03*
X004076Y012723D03*
X004076Y012779D03*
X004076Y012890D03*
X004076Y013001D03*
X004076Y013112D03*
X004076Y013223D03*
X004076Y013279D03*
X004076Y013390D03*
X004076Y013501D03*
X004076Y013612D03*
X004076Y013723D03*
X004076Y013779D03*
X004076Y013890D03*
X004076Y014001D03*
X004076Y014112D03*
D103*
X008659Y009779D03*
X008659Y009723D03*
X008659Y009612D03*
D104*
X011048Y011501D03*
X013048Y010390D03*
X013048Y010279D03*
X013048Y010223D03*
X013048Y010112D03*
X013048Y010001D03*
X013048Y009890D03*
X013048Y009779D03*
X013048Y009723D03*
X013048Y009612D03*
X013048Y012612D03*
X013048Y012723D03*
X013048Y012779D03*
X013048Y012890D03*
X011048Y014001D03*
D105*
X012131Y013279D03*
X008687Y009890D03*
D106*
X007881Y009946D03*
X007881Y010057D03*
X007881Y010168D03*
D107*
X010409Y010168D03*
X010409Y010057D03*
X010409Y009946D03*
X010409Y010334D03*
X010409Y010446D03*
X010409Y010557D03*
X010409Y010668D03*
X010409Y010834D03*
X010409Y011946D03*
X010409Y012057D03*
X010409Y012168D03*
X010409Y012334D03*
X010409Y012446D03*
X010409Y012557D03*
X010409Y012668D03*
X010409Y012834D03*
X010409Y012946D03*
X010409Y013057D03*
X012409Y010668D03*
X012409Y010557D03*
X012409Y010446D03*
D108*
X007881Y010223D03*
X007881Y010112D03*
X007881Y010001D03*
D109*
X010409Y010001D03*
X010409Y010112D03*
X010409Y010223D03*
X010409Y010279D03*
X010409Y010390D03*
X010409Y010501D03*
X010409Y010612D03*
X010409Y010723D03*
X010409Y010779D03*
X010409Y010890D03*
X010409Y012001D03*
X010409Y012112D03*
X010409Y012223D03*
X010409Y012279D03*
X010409Y012390D03*
X010409Y012501D03*
X010409Y012612D03*
X010409Y012723D03*
X010409Y012779D03*
X010409Y012890D03*
X010409Y013001D03*
X010409Y013112D03*
X012409Y010612D03*
X012409Y010501D03*
D110*
X007909Y010279D03*
D111*
X007881Y010334D03*
D112*
X015992Y010334D03*
D113*
X007881Y010390D03*
D114*
X015964Y010390D03*
D115*
X006937Y010446D03*
X006937Y010557D03*
X006937Y010668D03*
D116*
X007048Y011334D03*
X007048Y011446D03*
X007103Y011668D03*
X007103Y011834D03*
X008770Y010946D03*
X008770Y010834D03*
X008770Y010668D03*
X008825Y010557D03*
X008825Y010446D03*
D117*
X015937Y010446D03*
D118*
X006937Y010501D03*
X006937Y010612D03*
D119*
X007048Y011223D03*
X007048Y011279D03*
X007048Y011390D03*
X007048Y011501D03*
X007103Y011723D03*
X007103Y011779D03*
X007103Y011890D03*
X008770Y011001D03*
X008770Y010890D03*
X008770Y010779D03*
X008770Y010723D03*
X008825Y010612D03*
X008825Y010501D03*
D120*
X014465Y011612D03*
X015909Y010501D03*
X014687Y014001D03*
D121*
X014631Y011446D03*
X014742Y011334D03*
X015853Y010557D03*
X007853Y012946D03*
X007853Y013057D03*
X007853Y013168D03*
D122*
X015825Y010612D03*
D123*
X015770Y010668D03*
D124*
X015742Y010723D03*
D125*
X012353Y010779D03*
D126*
X015714Y010779D03*
D127*
X008714Y011168D03*
X008714Y011334D03*
X006992Y011057D03*
X006992Y010946D03*
X006992Y010834D03*
X007159Y012168D03*
X007159Y012334D03*
D128*
X012353Y010834D03*
D129*
X015659Y010834D03*
D130*
X012325Y010890D03*
D131*
X011353Y010946D03*
D132*
X015575Y010946D03*
D133*
X011353Y011001D03*
D134*
X015520Y011001D03*
D135*
X008742Y011057D03*
X008631Y011834D03*
X008631Y011946D03*
X008631Y012057D03*
X007131Y012057D03*
X007131Y011946D03*
X007020Y011168D03*
D136*
X011325Y011057D03*
X013270Y012057D03*
D137*
X015048Y011057D03*
D138*
X008742Y011112D03*
X008631Y011779D03*
X008631Y011890D03*
X008631Y012001D03*
X008631Y012112D03*
X007131Y012001D03*
X007020Y011112D03*
D139*
X011325Y011112D03*
X011325Y011890D03*
D140*
X007853Y013279D03*
X007853Y013390D03*
X007853Y013501D03*
X007853Y013612D03*
X015020Y011112D03*
D141*
X011298Y011168D03*
X011298Y011834D03*
X011298Y013446D03*
D142*
X014493Y011557D03*
X014937Y011168D03*
D143*
X013270Y012112D03*
X011270Y011779D03*
X011270Y011723D03*
X011270Y011223D03*
X011270Y013501D03*
D144*
X010881Y014112D03*
X007881Y013223D03*
X014548Y011501D03*
X014826Y011279D03*
X014881Y011223D03*
D145*
X011242Y011279D03*
X011242Y013612D03*
D146*
X011187Y011334D03*
D147*
X011131Y011390D03*
X013131Y012279D03*
X012965Y013112D03*
X014687Y013723D03*
X011131Y013890D03*
D148*
X014687Y011390D03*
D149*
X008687Y011446D03*
X008687Y011557D03*
X008687Y011668D03*
X007187Y012446D03*
D150*
X007187Y012501D03*
X007187Y012390D03*
X008687Y011612D03*
X008687Y011501D03*
D151*
X008576Y012446D03*
X007076Y011557D03*
D152*
X011131Y011557D03*
D153*
X008576Y012390D03*
X008576Y012501D03*
X007076Y011612D03*
D154*
X011187Y011612D03*
X013187Y012223D03*
X014687Y013612D03*
X011187Y013779D03*
D155*
X011214Y011668D03*
X013214Y012168D03*
D156*
X014381Y011668D03*
D157*
X014353Y011723D03*
X007853Y013723D03*
X007853Y013779D03*
X007853Y013890D03*
D158*
X007826Y014001D03*
X014270Y011779D03*
D159*
X014242Y011834D03*
D160*
X014159Y011890D03*
D161*
X014131Y011946D03*
D162*
X014076Y012001D03*
X014687Y014112D03*
D163*
X008604Y012279D03*
X008604Y012223D03*
D164*
X012992Y013057D03*
X013103Y012334D03*
D165*
X013103Y012390D03*
D166*
X013075Y012446D03*
X013020Y012946D03*
X011075Y013946D03*
D167*
X007853Y012668D03*
X007853Y012557D03*
D168*
X007853Y012612D03*
X007853Y012723D03*
X007853Y012779D03*
D169*
X007881Y012834D03*
D170*
X007853Y012890D03*
X007853Y013001D03*
X007853Y013112D03*
D171*
X012075Y013168D03*
D172*
X012103Y013223D03*
X005381Y016390D03*
X005381Y016501D03*
X005381Y017001D03*
X005381Y017112D03*
D173*
X015937Y013279D03*
D174*
X007853Y013334D03*
X007853Y013446D03*
X007853Y013557D03*
D175*
X013381Y013334D03*
D176*
X011298Y013390D03*
D177*
X015103Y013390D03*
X015103Y013501D03*
D178*
X015103Y013446D03*
D179*
X011270Y013557D03*
D180*
X007853Y013668D03*
X007853Y013834D03*
X007853Y013946D03*
D181*
X011242Y013668D03*
D182*
X011159Y013834D03*
X014715Y013668D03*
D183*
X011214Y013723D03*
D184*
X014687Y013779D03*
D185*
X014714Y013834D03*
D186*
X014715Y013890D03*
D187*
X014687Y013946D03*
D188*
X010964Y014057D03*
D189*
X014687Y014057D03*
D190*
X010659Y014168D03*
D191*
X014687Y014168D03*
D192*
X005381Y016334D03*
X005381Y016446D03*
X005381Y016557D03*
X005381Y017057D03*
X005381Y017168D03*
D193*
X010020Y016890D03*
X010020Y016779D03*
X010020Y016723D03*
X010020Y016612D03*
D194*
X010020Y016668D03*
X010020Y016834D03*
X010020Y016946D03*
M02*
