G75*
G70*
%OFA0B0*%
%FSLAX24Y24*%
%IPPOS*%
%LPD*%
%AMOC8*
5,1,8,0,0,1.08239X$1,22.5*
%
%ADD10C,0.0004*%
D10*
X000611Y000363D02*
X009953Y000363D01*
X019296Y000363D01*
X019340Y000365D01*
X019383Y000371D01*
X019425Y000380D01*
X019467Y000393D01*
X019507Y000410D01*
X019546Y000430D01*
X019583Y000453D01*
X019617Y000480D01*
X019650Y000509D01*
X019679Y000542D01*
X019706Y000576D01*
X019729Y000613D01*
X019749Y000652D01*
X019766Y000692D01*
X019779Y000734D01*
X019788Y000776D01*
X019794Y000819D01*
X019796Y000863D01*
X019796Y010955D01*
X019796Y019548D01*
X019794Y019592D01*
X019788Y019635D01*
X019779Y019677D01*
X019766Y019719D01*
X019749Y019759D01*
X019729Y019798D01*
X019706Y019835D01*
X019679Y019869D01*
X019650Y019902D01*
X019617Y019931D01*
X019583Y019958D01*
X019546Y019981D01*
X019507Y020001D01*
X019467Y020018D01*
X019425Y020031D01*
X019383Y020040D01*
X019340Y020046D01*
X019296Y020048D01*
X009953Y020048D01*
X000611Y020048D01*
X000567Y020046D01*
X000524Y020040D01*
X000482Y020031D01*
X000440Y020018D01*
X000400Y020001D01*
X000361Y019981D01*
X000324Y019958D01*
X000290Y019931D01*
X000257Y019902D01*
X000228Y019869D01*
X000201Y019835D01*
X000178Y019798D01*
X000158Y019759D01*
X000141Y019719D01*
X000128Y019677D01*
X000119Y019635D01*
X000113Y019592D01*
X000111Y019548D01*
X000111Y010205D01*
X000111Y000863D01*
X000113Y000819D01*
X000119Y000776D01*
X000128Y000734D01*
X000141Y000692D01*
X000158Y000652D01*
X000178Y000613D01*
X000201Y000576D01*
X000228Y000542D01*
X000257Y000509D01*
X000290Y000480D01*
X000324Y000453D01*
X000361Y000430D01*
X000400Y000410D01*
X000440Y000393D01*
X000482Y000380D01*
X000524Y000371D01*
X000567Y000365D01*
X000611Y000363D01*
M02*
