G75*
G70*
%OFA0B0*%
%FSLAX24Y24*%
%IPPOS*%
%LPD*%
%AMOC8*
5,1,8,0,0,1.08239X$1,22.5*
%
%ADD10C,0.0004*%
%ADD11C,0.0120*%
%ADD12C,0.0040*%
%ADD13C,0.0050*%
D10*
X000611Y000363D02*
X009953Y000363D01*
X019296Y000363D01*
X019340Y000365D01*
X019383Y000371D01*
X019425Y000380D01*
X019467Y000393D01*
X019507Y000410D01*
X019546Y000430D01*
X019583Y000453D01*
X019617Y000480D01*
X019650Y000509D01*
X019679Y000542D01*
X019706Y000576D01*
X019729Y000613D01*
X019749Y000652D01*
X019766Y000692D01*
X019779Y000734D01*
X019788Y000776D01*
X019794Y000819D01*
X019796Y000863D01*
X019796Y010955D01*
X019796Y019548D01*
X019794Y019592D01*
X019788Y019635D01*
X019779Y019677D01*
X019766Y019719D01*
X019749Y019759D01*
X019729Y019798D01*
X019706Y019835D01*
X019679Y019869D01*
X019650Y019902D01*
X019617Y019931D01*
X019583Y019958D01*
X019546Y019981D01*
X019507Y020001D01*
X019467Y020018D01*
X019425Y020031D01*
X019383Y020040D01*
X019340Y020046D01*
X019296Y020048D01*
X009953Y020048D01*
X000611Y020048D01*
X000567Y020046D01*
X000524Y020040D01*
X000482Y020031D01*
X000440Y020018D01*
X000400Y020001D01*
X000361Y019981D01*
X000324Y019958D01*
X000290Y019931D01*
X000257Y019902D01*
X000228Y019869D01*
X000201Y019835D01*
X000178Y019798D01*
X000158Y019759D01*
X000141Y019719D01*
X000128Y019677D01*
X000119Y019635D01*
X000113Y019592D01*
X000111Y019548D01*
X000111Y010205D01*
X000111Y000863D01*
X000113Y000819D01*
X000119Y000776D01*
X000128Y000734D01*
X000141Y000692D01*
X000158Y000652D01*
X000178Y000613D01*
X000201Y000576D01*
X000228Y000542D01*
X000257Y000509D01*
X000290Y000480D01*
X000324Y000453D01*
X000361Y000430D01*
X000400Y000410D01*
X000440Y000393D01*
X000482Y000380D01*
X000524Y000371D01*
X000567Y000365D01*
X000611Y000363D01*
D11*
X007486Y002238D02*
X007488Y002282D01*
X007494Y002326D01*
X007504Y002369D01*
X007517Y002411D01*
X007534Y002452D01*
X007555Y002491D01*
X007579Y002528D01*
X007606Y002563D01*
X007636Y002595D01*
X007669Y002625D01*
X007705Y002651D01*
X007742Y002675D01*
X007782Y002694D01*
X007823Y002711D01*
X007866Y002723D01*
X007909Y002732D01*
X007953Y002737D01*
X007997Y002738D01*
X008041Y002735D01*
X008085Y002728D01*
X008128Y002717D01*
X008170Y002703D01*
X008210Y002685D01*
X008249Y002663D01*
X008285Y002639D01*
X008319Y002611D01*
X008351Y002580D01*
X008380Y002546D01*
X008406Y002510D01*
X008428Y002472D01*
X008447Y002432D01*
X008462Y002390D01*
X008474Y002348D01*
X008482Y002304D01*
X008486Y002260D01*
X008486Y002216D01*
X008482Y002172D01*
X008474Y002128D01*
X008462Y002086D01*
X008447Y002044D01*
X008428Y002004D01*
X008406Y001966D01*
X008380Y001930D01*
X008351Y001896D01*
X008319Y001865D01*
X008285Y001837D01*
X008249Y001813D01*
X008210Y001791D01*
X008170Y001773D01*
X008128Y001759D01*
X008085Y001748D01*
X008041Y001741D01*
X007997Y001738D01*
X007953Y001739D01*
X007909Y001744D01*
X007866Y001753D01*
X007823Y001765D01*
X007782Y001782D01*
X007742Y001801D01*
X007705Y001825D01*
X007669Y001851D01*
X007636Y001881D01*
X007606Y001913D01*
X007579Y001948D01*
X007555Y001985D01*
X007534Y002024D01*
X007517Y002065D01*
X007504Y002107D01*
X007494Y002150D01*
X007488Y002194D01*
X007486Y002238D01*
X008486Y002238D02*
X008488Y002282D01*
X008494Y002326D01*
X008504Y002369D01*
X008517Y002411D01*
X008534Y002452D01*
X008555Y002491D01*
X008579Y002528D01*
X008606Y002563D01*
X008636Y002595D01*
X008669Y002625D01*
X008705Y002651D01*
X008742Y002675D01*
X008782Y002694D01*
X008823Y002711D01*
X008866Y002723D01*
X008909Y002732D01*
X008953Y002737D01*
X008997Y002738D01*
X009041Y002735D01*
X009085Y002728D01*
X009128Y002717D01*
X009170Y002703D01*
X009210Y002685D01*
X009249Y002663D01*
X009285Y002639D01*
X009319Y002611D01*
X009351Y002580D01*
X009380Y002546D01*
X009406Y002510D01*
X009428Y002472D01*
X009447Y002432D01*
X009462Y002390D01*
X009474Y002348D01*
X009482Y002304D01*
X009486Y002260D01*
X009486Y002216D01*
X009482Y002172D01*
X009474Y002128D01*
X009462Y002086D01*
X009447Y002044D01*
X009428Y002004D01*
X009406Y001966D01*
X009380Y001930D01*
X009351Y001896D01*
X009319Y001865D01*
X009285Y001837D01*
X009249Y001813D01*
X009210Y001791D01*
X009170Y001773D01*
X009128Y001759D01*
X009085Y001748D01*
X009041Y001741D01*
X008997Y001738D01*
X008953Y001739D01*
X008909Y001744D01*
X008866Y001753D01*
X008823Y001765D01*
X008782Y001782D01*
X008742Y001801D01*
X008705Y001825D01*
X008669Y001851D01*
X008636Y001881D01*
X008606Y001913D01*
X008579Y001948D01*
X008555Y001985D01*
X008534Y002024D01*
X008517Y002065D01*
X008504Y002107D01*
X008494Y002150D01*
X008488Y002194D01*
X008486Y002238D01*
X009486Y002238D02*
X009488Y002282D01*
X009494Y002326D01*
X009504Y002369D01*
X009517Y002411D01*
X009534Y002452D01*
X009555Y002491D01*
X009579Y002528D01*
X009606Y002563D01*
X009636Y002595D01*
X009669Y002625D01*
X009705Y002651D01*
X009742Y002675D01*
X009782Y002694D01*
X009823Y002711D01*
X009866Y002723D01*
X009909Y002732D01*
X009953Y002737D01*
X009997Y002738D01*
X010041Y002735D01*
X010085Y002728D01*
X010128Y002717D01*
X010170Y002703D01*
X010210Y002685D01*
X010249Y002663D01*
X010285Y002639D01*
X010319Y002611D01*
X010351Y002580D01*
X010380Y002546D01*
X010406Y002510D01*
X010428Y002472D01*
X010447Y002432D01*
X010462Y002390D01*
X010474Y002348D01*
X010482Y002304D01*
X010486Y002260D01*
X010486Y002216D01*
X010482Y002172D01*
X010474Y002128D01*
X010462Y002086D01*
X010447Y002044D01*
X010428Y002004D01*
X010406Y001966D01*
X010380Y001930D01*
X010351Y001896D01*
X010319Y001865D01*
X010285Y001837D01*
X010249Y001813D01*
X010210Y001791D01*
X010170Y001773D01*
X010128Y001759D01*
X010085Y001748D01*
X010041Y001741D01*
X009997Y001738D01*
X009953Y001739D01*
X009909Y001744D01*
X009866Y001753D01*
X009823Y001765D01*
X009782Y001782D01*
X009742Y001801D01*
X009705Y001825D01*
X009669Y001851D01*
X009636Y001881D01*
X009606Y001913D01*
X009579Y001948D01*
X009555Y001985D01*
X009534Y002024D01*
X009517Y002065D01*
X009504Y002107D01*
X009494Y002150D01*
X009488Y002194D01*
X009486Y002238D01*
X010486Y002238D02*
X010488Y002282D01*
X010494Y002326D01*
X010504Y002369D01*
X010517Y002411D01*
X010534Y002452D01*
X010555Y002491D01*
X010579Y002528D01*
X010606Y002563D01*
X010636Y002595D01*
X010669Y002625D01*
X010705Y002651D01*
X010742Y002675D01*
X010782Y002694D01*
X010823Y002711D01*
X010866Y002723D01*
X010909Y002732D01*
X010953Y002737D01*
X010997Y002738D01*
X011041Y002735D01*
X011085Y002728D01*
X011128Y002717D01*
X011170Y002703D01*
X011210Y002685D01*
X011249Y002663D01*
X011285Y002639D01*
X011319Y002611D01*
X011351Y002580D01*
X011380Y002546D01*
X011406Y002510D01*
X011428Y002472D01*
X011447Y002432D01*
X011462Y002390D01*
X011474Y002348D01*
X011482Y002304D01*
X011486Y002260D01*
X011486Y002216D01*
X011482Y002172D01*
X011474Y002128D01*
X011462Y002086D01*
X011447Y002044D01*
X011428Y002004D01*
X011406Y001966D01*
X011380Y001930D01*
X011351Y001896D01*
X011319Y001865D01*
X011285Y001837D01*
X011249Y001813D01*
X011210Y001791D01*
X011170Y001773D01*
X011128Y001759D01*
X011085Y001748D01*
X011041Y001741D01*
X010997Y001738D01*
X010953Y001739D01*
X010909Y001744D01*
X010866Y001753D01*
X010823Y001765D01*
X010782Y001782D01*
X010742Y001801D01*
X010705Y001825D01*
X010669Y001851D01*
X010636Y001881D01*
X010606Y001913D01*
X010579Y001948D01*
X010555Y001985D01*
X010534Y002024D01*
X010517Y002065D01*
X010504Y002107D01*
X010494Y002150D01*
X010488Y002194D01*
X010486Y002238D01*
X012486Y002238D02*
X012488Y002282D01*
X012494Y002326D01*
X012504Y002369D01*
X012517Y002411D01*
X012534Y002452D01*
X012555Y002491D01*
X012579Y002528D01*
X012606Y002563D01*
X012636Y002595D01*
X012669Y002625D01*
X012705Y002651D01*
X012742Y002675D01*
X012782Y002694D01*
X012823Y002711D01*
X012866Y002723D01*
X012909Y002732D01*
X012953Y002737D01*
X012997Y002738D01*
X013041Y002735D01*
X013085Y002728D01*
X013128Y002717D01*
X013170Y002703D01*
X013210Y002685D01*
X013249Y002663D01*
X013285Y002639D01*
X013319Y002611D01*
X013351Y002580D01*
X013380Y002546D01*
X013406Y002510D01*
X013428Y002472D01*
X013447Y002432D01*
X013462Y002390D01*
X013474Y002348D01*
X013482Y002304D01*
X013486Y002260D01*
X013486Y002216D01*
X013482Y002172D01*
X013474Y002128D01*
X013462Y002086D01*
X013447Y002044D01*
X013428Y002004D01*
X013406Y001966D01*
X013380Y001930D01*
X013351Y001896D01*
X013319Y001865D01*
X013285Y001837D01*
X013249Y001813D01*
X013210Y001791D01*
X013170Y001773D01*
X013128Y001759D01*
X013085Y001748D01*
X013041Y001741D01*
X012997Y001738D01*
X012953Y001739D01*
X012909Y001744D01*
X012866Y001753D01*
X012823Y001765D01*
X012782Y001782D01*
X012742Y001801D01*
X012705Y001825D01*
X012669Y001851D01*
X012636Y001881D01*
X012606Y001913D01*
X012579Y001948D01*
X012555Y001985D01*
X012534Y002024D01*
X012517Y002065D01*
X012504Y002107D01*
X012494Y002150D01*
X012488Y002194D01*
X012486Y002238D01*
X010486Y007738D02*
X009486Y007738D01*
X009486Y008738D01*
X010486Y008738D01*
X010486Y007738D01*
X011486Y008738D02*
X011486Y009738D01*
X012486Y009738D01*
X012486Y010738D01*
X011486Y010738D01*
X011486Y011738D02*
X011486Y013738D01*
X010486Y013738D01*
X009486Y013738D01*
X009486Y011738D01*
X010486Y012738D02*
X010486Y013738D01*
X010486Y014738D02*
X011486Y014738D01*
X011486Y016738D01*
X012486Y016738D02*
X012486Y015738D01*
X013486Y015738D01*
X013486Y016738D01*
X012486Y016738D01*
X012486Y015738D02*
X012486Y014738D01*
X013486Y014738D02*
X013486Y015738D01*
X014486Y016738D02*
X014486Y014738D01*
X014486Y013738D02*
X014486Y011738D01*
X015486Y011738D01*
X015486Y013738D01*
X014486Y013738D01*
X013486Y013738D02*
X012486Y013738D01*
X012486Y011738D01*
X013486Y011738D01*
X013486Y013738D01*
X015486Y015738D02*
X015486Y016738D01*
X014486Y016738D01*
X015486Y016738D02*
X016486Y016738D01*
X016486Y014738D01*
X017486Y014738D02*
X018486Y014738D01*
X018486Y015738D02*
X017486Y015738D01*
X017486Y014738D01*
X017486Y013738D02*
X017486Y012738D01*
X016986Y012738D01*
X016486Y012238D01*
X016486Y011800D01*
X016486Y010738D02*
X015486Y010738D01*
X015486Y009738D01*
X016423Y009738D01*
X015486Y009738D02*
X015486Y008800D01*
X016486Y008738D02*
X016486Y010738D01*
X018486Y010738D02*
X018486Y008738D01*
X017486Y008738D01*
X014486Y008738D02*
X013486Y008738D01*
X013486Y008800D02*
X013486Y009738D01*
X014423Y009738D01*
X014486Y010738D02*
X014486Y008738D01*
X012486Y008738D02*
X011486Y008738D01*
X008486Y008738D02*
X007486Y008738D01*
X008486Y008738D02*
X008486Y010738D01*
X007486Y010738D01*
X006486Y010738D02*
X005486Y010738D01*
X005486Y008738D01*
X006486Y008738D01*
X006486Y010738D01*
X004486Y010738D02*
X004486Y008738D01*
X003486Y009738D02*
X003486Y010738D01*
X002486Y010738D01*
X002486Y008738D01*
X003486Y010738D02*
X004486Y010738D01*
X008486Y014738D02*
X009486Y014738D01*
X009486Y016738D01*
X010486Y018238D02*
X010488Y018282D01*
X010494Y018326D01*
X010504Y018369D01*
X010517Y018411D01*
X010534Y018452D01*
X010555Y018491D01*
X010579Y018528D01*
X010606Y018563D01*
X010636Y018595D01*
X010669Y018625D01*
X010705Y018651D01*
X010742Y018675D01*
X010782Y018694D01*
X010823Y018711D01*
X010866Y018723D01*
X010909Y018732D01*
X010953Y018737D01*
X010997Y018738D01*
X011041Y018735D01*
X011085Y018728D01*
X011128Y018717D01*
X011170Y018703D01*
X011210Y018685D01*
X011249Y018663D01*
X011285Y018639D01*
X011319Y018611D01*
X011351Y018580D01*
X011380Y018546D01*
X011406Y018510D01*
X011428Y018472D01*
X011447Y018432D01*
X011462Y018390D01*
X011474Y018348D01*
X011482Y018304D01*
X011486Y018260D01*
X011486Y018216D01*
X011482Y018172D01*
X011474Y018128D01*
X011462Y018086D01*
X011447Y018044D01*
X011428Y018004D01*
X011406Y017966D01*
X011380Y017930D01*
X011351Y017896D01*
X011319Y017865D01*
X011285Y017837D01*
X011249Y017813D01*
X011210Y017791D01*
X011170Y017773D01*
X011128Y017759D01*
X011085Y017748D01*
X011041Y017741D01*
X010997Y017738D01*
X010953Y017739D01*
X010909Y017744D01*
X010866Y017753D01*
X010823Y017765D01*
X010782Y017782D01*
X010742Y017801D01*
X010705Y017825D01*
X010669Y017851D01*
X010636Y017881D01*
X010606Y017913D01*
X010579Y017948D01*
X010555Y017985D01*
X010534Y018024D01*
X010517Y018065D01*
X010504Y018107D01*
X010494Y018150D01*
X010488Y018194D01*
X010486Y018238D01*
X003486Y018238D02*
X003488Y018282D01*
X003494Y018326D01*
X003504Y018369D01*
X003517Y018411D01*
X003534Y018452D01*
X003555Y018491D01*
X003579Y018528D01*
X003606Y018563D01*
X003636Y018595D01*
X003669Y018625D01*
X003705Y018651D01*
X003742Y018675D01*
X003782Y018694D01*
X003823Y018711D01*
X003866Y018723D01*
X003909Y018732D01*
X003953Y018737D01*
X003997Y018738D01*
X004041Y018735D01*
X004085Y018728D01*
X004128Y018717D01*
X004170Y018703D01*
X004210Y018685D01*
X004249Y018663D01*
X004285Y018639D01*
X004319Y018611D01*
X004351Y018580D01*
X004380Y018546D01*
X004406Y018510D01*
X004428Y018472D01*
X004447Y018432D01*
X004462Y018390D01*
X004474Y018348D01*
X004482Y018304D01*
X004486Y018260D01*
X004486Y018216D01*
X004482Y018172D01*
X004474Y018128D01*
X004462Y018086D01*
X004447Y018044D01*
X004428Y018004D01*
X004406Y017966D01*
X004380Y017930D01*
X004351Y017896D01*
X004319Y017865D01*
X004285Y017837D01*
X004249Y017813D01*
X004210Y017791D01*
X004170Y017773D01*
X004128Y017759D01*
X004085Y017748D01*
X004041Y017741D01*
X003997Y017738D01*
X003953Y017739D01*
X003909Y017744D01*
X003866Y017753D01*
X003823Y017765D01*
X003782Y017782D01*
X003742Y017801D01*
X003705Y017825D01*
X003669Y017851D01*
X003636Y017881D01*
X003606Y017913D01*
X003579Y017948D01*
X003555Y017985D01*
X003534Y018024D01*
X003517Y018065D01*
X003504Y018107D01*
X003494Y018150D01*
X003488Y018194D01*
X003486Y018238D01*
X017486Y016738D02*
X018486Y016738D01*
X018486Y015738D01*
X018486Y013738D02*
X017486Y013738D01*
X018486Y013738D02*
X018486Y012675D01*
X018486Y012738D01*
X017548Y012738D01*
X017486Y012738D01*
X017548Y012738D01*
X018486Y012675D02*
X018486Y011800D01*
D12*
X018176Y018695D02*
X017869Y018695D01*
X018023Y018695D02*
X018023Y019156D01*
X018176Y019002D01*
X018807Y019079D02*
X018807Y018772D01*
X018884Y018695D01*
X019037Y018695D01*
X019114Y018772D01*
X018807Y019079D01*
X018884Y019156D01*
X019037Y019156D01*
X019114Y019079D01*
X019114Y018772D01*
X019173Y019383D02*
X019096Y019460D01*
X019096Y019766D01*
X019173Y019843D01*
X019403Y019843D01*
X019403Y019383D01*
X019173Y019383D01*
X017114Y019079D02*
X017037Y019156D01*
X016884Y019156D01*
X016807Y019079D01*
X016807Y019002D01*
X017114Y018695D01*
X016807Y018695D01*
X016114Y018772D02*
X016037Y018695D01*
X015884Y018695D01*
X015807Y018772D01*
X015807Y018849D01*
X015884Y018925D01*
X015960Y018925D01*
X015884Y018925D02*
X015807Y019002D01*
X015807Y019079D01*
X015884Y019156D01*
X016037Y019156D01*
X016114Y019079D01*
X015114Y018926D02*
X014807Y018926D01*
X014884Y019156D02*
X014884Y018695D01*
X015114Y018926D02*
X014884Y019156D01*
X014114Y019156D02*
X014114Y018926D01*
X013960Y019002D01*
X013884Y019002D01*
X013807Y018926D01*
X013807Y018772D01*
X013884Y018695D01*
X014037Y018695D01*
X014114Y018772D01*
X014114Y019156D02*
X013807Y019156D01*
X013114Y018925D02*
X013114Y018772D01*
X013037Y018695D01*
X012884Y018695D01*
X012807Y018772D01*
X012807Y018849D01*
X012884Y018925D01*
X013114Y018925D01*
X012960Y019079D01*
X012807Y019156D01*
X012114Y019156D02*
X011807Y019156D01*
X011807Y019079D01*
X012114Y018772D01*
X012114Y018695D01*
X011014Y019053D02*
X010708Y019053D01*
X010861Y018900D02*
X010861Y019206D01*
X010861Y019360D02*
X010938Y019513D01*
X010938Y019590D01*
X010861Y019667D01*
X010708Y019667D01*
X010631Y019590D01*
X010631Y019437D01*
X010708Y019360D01*
X010861Y019360D02*
X011091Y019360D01*
X011091Y019667D01*
X010114Y019079D02*
X010114Y019002D01*
X010037Y018926D01*
X009884Y018926D01*
X009807Y018849D01*
X009807Y018772D01*
X009884Y018695D01*
X010037Y018695D01*
X010114Y018772D01*
X010114Y018849D01*
X010037Y018926D01*
X009884Y018926D02*
X009807Y019002D01*
X009807Y019079D01*
X009884Y019156D01*
X010037Y019156D01*
X010114Y019079D01*
X009114Y019079D02*
X009114Y019002D01*
X009037Y018925D01*
X008807Y018925D01*
X008807Y018772D02*
X008807Y019079D01*
X008884Y019156D01*
X009037Y019156D01*
X009114Y019079D01*
X009114Y018772D02*
X009037Y018695D01*
X008884Y018695D01*
X008807Y018772D01*
X008387Y018695D02*
X008080Y018695D01*
X008233Y018695D02*
X008233Y019156D01*
X008387Y019002D01*
X007926Y019079D02*
X007926Y018772D01*
X007619Y019079D01*
X007619Y018772D01*
X007696Y018695D01*
X007850Y018695D01*
X007926Y018772D01*
X007926Y019079D02*
X007850Y019156D01*
X007696Y019156D01*
X007619Y019079D01*
X007387Y019002D02*
X007233Y019156D01*
X007233Y018695D01*
X007080Y018695D02*
X007387Y018695D01*
X006926Y018695D02*
X006619Y018695D01*
X006773Y018695D02*
X006773Y019156D01*
X006926Y019002D01*
X006387Y019002D02*
X006233Y019156D01*
X006233Y018695D01*
X006080Y018695D02*
X006387Y018695D01*
X005926Y018695D02*
X005619Y019002D01*
X005619Y019079D01*
X005696Y019156D01*
X005850Y019156D01*
X005926Y019079D01*
X005926Y018695D02*
X005619Y018695D01*
X005387Y018695D02*
X005080Y018695D01*
X005233Y018695D02*
X005233Y019156D01*
X005387Y019002D01*
X004926Y019079D02*
X004850Y019156D01*
X004696Y019156D01*
X004619Y019079D01*
X004619Y019002D01*
X004696Y018926D01*
X004619Y018849D01*
X004619Y018772D01*
X004696Y018695D01*
X004850Y018695D01*
X004926Y018772D01*
X004773Y018926D02*
X004696Y018926D01*
X003310Y018926D02*
X003003Y018926D01*
X003003Y019002D02*
X003003Y018695D01*
X002850Y018695D02*
X002850Y019002D01*
X003003Y019002D02*
X003156Y019156D01*
X003310Y019002D01*
X003310Y018695D01*
X002850Y018849D02*
X002696Y019002D01*
X002619Y019002D01*
X007094Y001781D02*
X007017Y001704D01*
X007017Y001550D01*
X007094Y001474D01*
X007324Y001474D01*
X007171Y001474D02*
X007017Y001320D01*
X006864Y001320D02*
X006634Y001320D01*
X006557Y001397D01*
X006634Y001474D01*
X006787Y001474D01*
X006864Y001550D01*
X006787Y001627D01*
X006557Y001627D01*
X007094Y001781D02*
X007324Y001781D01*
X007324Y001320D01*
X007619Y001349D02*
X007619Y001272D01*
X007696Y001195D01*
X007850Y001195D01*
X007926Y001272D01*
X007773Y001426D02*
X007696Y001426D01*
X007619Y001349D01*
X007696Y001426D02*
X007619Y001502D01*
X007619Y001579D01*
X007696Y001656D01*
X007850Y001656D01*
X007926Y001579D01*
X008080Y001426D02*
X008387Y001426D01*
X008494Y001426D02*
X008494Y001272D01*
X008571Y001195D01*
X008725Y001195D01*
X008801Y001272D01*
X008801Y001426D02*
X008648Y001502D01*
X008571Y001502D01*
X008494Y001426D01*
X008233Y001579D02*
X008233Y001272D01*
X008494Y001656D02*
X008801Y001656D01*
X008801Y001426D01*
X008955Y001426D02*
X009262Y001426D01*
X009108Y001579D02*
X009108Y001272D01*
X011682Y001258D02*
X011835Y001258D01*
X011759Y001258D02*
X011759Y001565D01*
X011835Y001565D01*
X011759Y001718D02*
X011759Y001795D01*
X011989Y001718D02*
X011989Y001411D01*
X012142Y001258D01*
X012296Y001411D01*
X012296Y001718D01*
X012693Y001511D02*
X012693Y001357D01*
X012770Y001281D01*
X012924Y001281D02*
X013000Y001434D01*
X013000Y001511D01*
X012924Y001588D01*
X012770Y001588D01*
X012693Y001511D01*
X012924Y001281D02*
X013154Y001281D01*
X013154Y001588D01*
X012924Y001127D02*
X012924Y000820D01*
X013077Y000974D02*
X012770Y000974D01*
X013807Y001335D02*
X013884Y001258D01*
X014037Y001258D01*
X014114Y001335D01*
X013807Y001641D01*
X013807Y001335D01*
X014114Y001335D02*
X014114Y001641D01*
X014037Y001718D01*
X013884Y001718D01*
X013807Y001641D01*
X014869Y001258D02*
X015176Y001258D01*
X015023Y001258D02*
X015023Y001718D01*
X015176Y001565D01*
X015807Y001565D02*
X015807Y001641D01*
X015884Y001718D01*
X016037Y001718D01*
X016114Y001641D01*
X015807Y001565D02*
X016114Y001258D01*
X015807Y001258D01*
X016869Y001335D02*
X016946Y001258D01*
X017100Y001258D01*
X017176Y001335D01*
X017023Y001488D02*
X016946Y001488D01*
X016869Y001411D01*
X016869Y001335D01*
X016946Y001488D02*
X016869Y001565D01*
X016869Y001641D01*
X016946Y001718D01*
X017100Y001718D01*
X017176Y001641D01*
X017807Y001488D02*
X018114Y001488D01*
X017884Y001718D01*
X017884Y001258D01*
X018869Y001335D02*
X018946Y001258D01*
X019100Y001258D01*
X019176Y001335D01*
X019176Y001488D02*
X019023Y001565D01*
X018946Y001565D01*
X018869Y001488D01*
X018869Y001335D01*
X019176Y001488D02*
X019176Y001718D01*
X018869Y001718D01*
X019375Y001156D02*
X019221Y001002D01*
X019221Y000695D01*
X019221Y000926D02*
X019528Y000926D01*
X019528Y001002D02*
X019375Y001156D01*
X019528Y001002D02*
X019528Y000695D01*
D13*
X011194Y001471D02*
X010787Y001471D01*
X010194Y001471D02*
X009787Y001471D01*
X004194Y019033D02*
X003787Y019033D01*
M02*
