%
M48
M72
T01C0.0354
T02C0.0394
%
T01
X18875Y17875
X17875Y17875
X16875Y17875
X15875Y17875
X14875Y17875
X13875Y17875
X12875Y17875
X11875Y17875
X9875Y17875
X8875Y17875
X7875Y17875
X6875Y17875
X5875Y17875
X4875Y17875
X3875Y17875
X2875Y17875
X875Y13875
X1875Y13875
X2875Y13875
X3875Y13875
X4875Y13875
X5875Y13875
X6875Y13875
X7875Y13875
X8875Y13875
X9875Y13875
X10875Y13875
X875Y12875
X1875Y12875
X2875Y12875
X3875Y12875
X4875Y12875
X5875Y12875
X6875Y12875
X7875Y12875
X8875Y12875
X9875Y12875
X10875Y12875
X875Y11875
X1875Y11875
X2875Y11875
X3875Y11875
X4875Y11875
X5875Y11875
X6875Y11875
X7875Y11875
X8875Y11875
X9875Y11875
X10875Y11875
X875Y10875
X1875Y10875
X2875Y10875
X3875Y10875
X4875Y10875
X5875Y10875
X6875Y10875
X7875Y10875
X8875Y10875
X9875Y10875
X10875Y10875
X11875Y13875
X12875Y13875
X13875Y13875
X14875Y13875
X15875Y13875
X16875Y13875
X17875Y13875
X18875Y13875
X11875Y12875
X12875Y12875
X13875Y12875
X14875Y12875
X15875Y12875
X16875Y12875
X17875Y12875
X18875Y12875
X11875Y11875
X12875Y11875
X13875Y11875
X14875Y11875
X15875Y11875
X16875Y11875
X17875Y11875
X18875Y11875
X11875Y10875
X12875Y10875
X13875Y10875
X14875Y10875
X15875Y10875
X16875Y10875
X17875Y10875
X18875Y10875
X875Y17875
X875Y18875
X1875Y17875
X1875Y18875
X875Y16875
X1875Y16875
X2875Y16875
X3875Y16875
X4875Y16875
X5875Y16875
X6875Y16875
X7875Y16875
X8875Y16875
X9875Y16875
X10875Y16875
X875Y15875
X1875Y15875
X2875Y15875
X3875Y15875
X4875Y15875
X5875Y15875
X6875Y15875
X7875Y15875
X8875Y15875
X9875Y15875
X10875Y15875
X875Y14875
X1875Y14875
X2875Y14875
X3875Y14875
X4875Y14875
X5875Y14875
X6875Y14875
X7875Y14875
X8875Y14875
X9875Y14875
X10875Y14875
X11875Y16875
X12875Y16875
X13875Y16875
X14875Y16875
X15875Y16875
X16875Y16875
X17875Y16875
X18875Y16875
X11875Y15875
X12875Y15875
X13875Y15875
X14875Y15875
X15875Y15875
X16875Y15875
X17875Y15875
X18875Y15875
X11875Y14875
X12875Y14875
X13875Y14875
X14875Y14875
X15875Y14875
X16875Y14875
X17875Y14875
X18875Y14875
X875Y9875
X1875Y9875
X2875Y9875
X3875Y9875
X4875Y9875
X5875Y9875
X6875Y9875
X7875Y9875
X8875Y9875
X9875Y9875
X10875Y9875
X875Y8875
X1875Y8875
X2875Y8875
X3875Y8875
X4875Y8875
X5875Y8875
X6875Y8875
X7875Y8875
X8875Y8875
X9875Y8875
X10875Y8875
X875Y7875
X1875Y7875
X2875Y7875
X3875Y7875
X4875Y7875
X5875Y7875
X6875Y7875
X7875Y7875
X8875Y7875
X9875Y7875
X10875Y7875
X875Y6875
X1875Y6875
X2875Y6875
X3875Y6875
X4875Y6875
X5875Y6875
X6875Y6875
X7875Y6875
X8875Y6875
X9875Y6875
X10875Y6875
X11875Y9875
X12875Y9875
X13875Y9875
X14875Y9875
X15875Y9875
X16875Y9875
X17875Y9875
X18875Y9875
X11875Y8875
X12875Y8875
X13875Y8875
X14875Y8875
X15875Y8875
X16875Y8875
X17875Y8875
X18875Y8875
X11875Y7875
X12875Y7875
X13875Y7875
X14875Y7875
X15875Y7875
X16875Y7875
X17875Y7875
X18875Y7875
X11875Y6875
X12875Y6875
X13875Y6875
X14875Y6875
X15875Y6875
X16875Y6875
X17875Y6875
X18875Y6875
X875Y5875
X1875Y5875
X2875Y5875
X3875Y5875
X4875Y5875
X5875Y5875
X6875Y5875
X7875Y5875
X8875Y5875
X9875Y5875
X10875Y5875
X875Y4875
X1875Y4875
X2875Y4875
X3875Y4875
X4875Y4875
X5875Y4875
X6875Y4875
X7875Y4875
X8875Y4875
X9875Y4875
X10875Y4875
X875Y3875
X1875Y3875
X2875Y3875
X3875Y3875
X4875Y3875
X5875Y3875
X6875Y3875
X7875Y3875
X8875Y3875
X9875Y3875
X10875Y3875
X875Y2875
X1875Y2875
X2875Y2875
X3875Y2875
X4875Y2875
X5875Y2875
X6875Y2875
X7875Y2875
X8875Y2875
X9875Y2875
X10875Y2875
X11875Y5875
X12875Y5875
X13875Y5875
X14875Y5875
X15875Y5875
X16875Y5875
X17875Y5875
X18875Y5875
X11875Y4875
X12875Y4875
X13875Y4875
X14875Y4875
X15875Y4875
X16875Y4875
X17875Y4875
X18875Y4875
X11875Y3875
X12875Y3875
X13875Y3875
X14875Y3875
X15875Y3875
X16875Y3875
X17875Y3875
X18875Y3875
X11875Y2875
X12875Y2875
X13875Y2875
X14875Y2875
X15875Y2875
X16875Y2875
X17875Y2875
X18875Y2875
X875Y1875
X875Y875
X1875Y1875
X1875Y875
X2875Y1875
X2875Y875
X3875Y1875
X3875Y875
X4875Y1875
X4875Y875
X5875Y1875
X6875Y1875
X7875Y1875
X8875Y1875
X9875Y1875
X10875Y1875
X11875Y1875
X13875Y1875
X14875Y1875
X15875Y1875
X16875Y1875
X17875Y1875
X18875Y1875
X12875Y1875
X10875Y17875
T02
X18500Y19375
X17500Y19375
X16500Y19375
X15500Y19375
X14500Y19375
X13500Y19375
X12500Y19375
X11500Y19375
X9875Y19375
X8875Y19375
X7875Y19375
X6875Y19375
X5875Y19375
X4875Y19375
X3875Y19375
X2875Y19375
X8500Y375
X6500Y375
X7500Y375
X9500Y375
X10500Y375
X11500Y375
X13500Y375
X14500Y375
X15500Y375
X16500Y375
X17500Y375
X18500Y375
M30
